<?xml version="1.0" encoding="UTF-8" standalone="no"?>
<!DOCTYPE svg PUBLIC "-//W3C//DTD SVG 1.1//EN"
 "http://www.w3.org/Graphics/SVG/1.1/DTD/svg11.dtd">
<!-- Generated by graphviz version 2.40.1 (20161225.0304)
 -->
<!-- Title: G Pages: 1 -->
<svg width="1142pt" height="474pt"
 viewBox="0.00 0.00 1141.54 474.00" xmlns="http://www.w3.org/2000/svg" xmlns:xlink="http://www.w3.org/1999/xlink">
<g id="graph0" class="graph" transform="scale(1 1) rotate(0) translate(4 470)">
<title>G</title>
<polygon fill="#ffffff" stroke="transparent" points="-4,4 -4,-470 1137.5381,-470 1137.5381,4 -4,4"/>
<!-- start -->
<g id="node1" class="node">
<title>start</title>
<ellipse fill="none" stroke="#000000" stroke-dasharray="1,5" cx="103" cy="-448" rx="27" ry="18"/>
<text text-anchor="middle" x="103" y="-443.8" font-family="Times,serif" font-size="14.00" fill="#000000">start</text>
</g>
<!-- error -->
<g id="node2" class="node">
<title>error</title>
<ellipse fill="none" stroke="#ff0000" cx="501" cy="-18" rx="27.0787" ry="18"/>
<text text-anchor="middle" x="501" y="-13.8" font-family="Times,serif" font-size="14.00" fill="#000000">error</text>
</g>
<!-- start&#45;&gt;error -->
<g id="edge2" class="edge">
<title>start&#45;&gt;error</title>
<path fill="none" stroke="#000000" d="M78.5904,-439.8632C48.1319,-427.9859 0,-402.7673 0,-362 0,-362 0,-362 0,-104 0,-73.8039 18.8495,-67.2157 46,-54 83.1157,-35.9336 361.2667,-23.4266 463.4723,-19.3984"/>
<polygon fill="#000000" stroke="#000000" points="463.7874,-22.8889 473.6437,-19.0027 463.5152,-15.8942 463.7874,-22.8889"/>
<text text-anchor="middle" x="18.269" y="-228.8" font-family="Times,serif" font-size="14.00" fill="#000000">refund</text>
</g>
<!-- start&#45;&gt;error -->
<g id="edge3" class="edge">
<title>start&#45;&gt;error</title>
<path fill="none" stroke="#000000" d="M89.3945,-432.0567C76.7969,-415.6252 60,-388.7086 60,-362 60,-362 60,-362 60,-104 60,-78.3105 67.3193,-67.7803 89,-54 120.211,-34.1623 368.0333,-22.9382 463.598,-19.3121"/>
<polygon fill="#000000" stroke="#000000" points="463.8214,-22.8063 473.6841,-18.9362 463.5607,-15.8111 463.8214,-22.8063"/>
<text text-anchor="middle" x="70.1069" y="-228.8" font-family="Times,serif" font-size="14.00" fill="#000000">pay</text>
</g>
<!-- start&#45;&gt;error -->
<g id="edge4" class="edge">
<title>start&#45;&gt;error</title>
<path fill="none" stroke="#000000" d="M103,-429.8801C103,-412.4759 103,-385.441 103,-362 103,-362 103,-362 103,-104 103,-75.2619 118.6738,-67.5816 144,-54 171.7003,-39.1452 377.6276,-25.3366 463.5336,-20.1581"/>
<polygon fill="#000000" stroke="#000000" points="463.8609,-23.6449 473.6348,-19.5557 463.4441,-16.6573 463.8609,-23.6449"/>
<text text-anchor="middle" x="120.8726" y="-228.8" font-family="Times,serif" font-size="14.00" fill="#000000">cancel</text>
</g>
<!-- start&#45;&gt;error -->
<g id="edge5" class="edge">
<title>start&#45;&gt;error</title>
<path fill="none" stroke="#000000" d="M110.3726,-430.6077C112.6871,-424.7607 115.1246,-418.1585 117,-412 160.2523,-269.9624 119.4805,-216.6615 190,-86 199.4048,-68.5745 203.2972,-62.8718 221,-54 262.6957,-33.1041 397.1488,-23.3807 463.397,-19.7668"/>
<polygon fill="#000000" stroke="#000000" points="463.6173,-23.2601 473.4192,-19.2384 463.2488,-16.2698 463.6173,-23.2601"/>
<text text-anchor="middle" x="156.6689" y="-228.8" font-family="Times,serif" font-size="14.00" fill="#000000">ship</text>
</g>
<!-- awaiting_payment -->
<g id="node3" class="node">
<title>awaiting_payment</title>
<ellipse fill="none" stroke="#000000" cx="603" cy="-362" rx="75.3621" ry="18"/>
<text text-anchor="middle" x="603" y="-357.8" font-family="Times,serif" font-size="14.00" fill="#000000">awaiting_payment</text>
</g>
<!-- start&#45;&gt;awaiting_payment -->
<g id="edge1" class="edge">
<title>start&#45;&gt;awaiting_payment</title>
<path fill="none" stroke="#000000" d="M129.1782,-443.4974C203.6866,-430.6819 418.7994,-393.6825 531.7742,-374.2508"/>
<polygon fill="#000000" stroke="#000000" points="532.4556,-377.6851 541.7176,-372.5406 531.269,-370.7864 532.4556,-377.6851"/>
<text text-anchor="middle" x="398.7036" y="-400.8" font-family="Times,serif" font-size="14.00" fill="#000000">create</text>
</g>
<!-- error&#45;&gt;error -->
<g id="edge31" class="edge">
<title>error&#45;&gt;error</title>
<path fill="none" stroke="#000000" d="M528.4154,-19.5735C538.2613,-19.6073 546.2885,-19.0828 546.2885,-18 546.2885,-17.3402 543.3077,-16.8876 538.751,-16.6425"/>
<polygon fill="#000000" stroke="#000000" points="538.4864,-13.1363 528.4154,-16.4265 538.3401,-20.1347 538.4864,-13.1363"/>
<text text-anchor="middle" x="564.5576" y="-13.8" font-family="Times,serif" font-size="14.00" fill="#000000">refund</text>
</g>
<!-- error&#45;&gt;error -->
<g id="edge32" class="edge">
<title>error&#45;&gt;error</title>
<path fill="none" stroke="#000000" d="M528.062,-20.6499C553.1351,-21.82 582.8266,-20.9367 582.8266,-18 582.8266,-15.4533 560.4982,-14.4508 538.2161,-14.9925"/>
<polygon fill="#000000" stroke="#000000" points="537.9326,-11.5002 528.062,-15.3501 538.179,-18.4959 537.9326,-11.5002"/>
<text text-anchor="middle" x="592.9336" y="-13.8" font-family="Times,serif" font-size="14.00" fill="#000000">pay</text>
</g>
<!-- error&#45;&gt;error -->
<g id="edge33" class="edge">
<title>error&#45;&gt;error</title>
<path fill="none" stroke="#000000" d="M527.8679,-21.5065C560.444,-23.9185 603.0405,-22.7496 603.0405,-18 603.0405,-13.7328 568.6571,-12.3559 538.0484,-13.8694"/>
<polygon fill="#000000" stroke="#000000" points="537.6349,-10.3881 527.8679,-14.4935 538.0633,-17.3749 537.6349,-10.3881"/>
<text text-anchor="middle" x="620.913" y="-13.8" font-family="Times,serif" font-size="14.00" fill="#000000">cancel</text>
</g>
<!-- error&#45;&gt;error -->
<g id="edge34" class="edge">
<title>error&#45;&gt;error</title>
<path fill="none" stroke="#000000" d="M527.9105,-22.0202C571.6534,-26.0666 638.7856,-24.7266 638.7856,-18 638.7856,-11.7727 581.2486,-10.162 537.9997,-13.1679"/>
<polygon fill="#000000" stroke="#000000" points="537.5975,-9.6888 527.9105,-13.9798 538.1591,-16.6663 537.5975,-9.6888"/>
<text text-anchor="middle" x="650.4545" y="-13.8" font-family="Times,serif" font-size="14.00" fill="#000000">ship</text>
</g>
<!-- error&#45;&gt;error -->
<g id="edge35" class="edge">
<title>error&#45;&gt;error</title>
<path fill="none" stroke="#000000" d="M527.4679,-22.4835C578.4383,-28.1898 662.1235,-26.6953 662.1235,-18 662.1235,-9.8651 588.8782,-8.0327 537.7001,-12.5029"/>
<polygon fill="#000000" stroke="#000000" points="537.0742,-9.0476 527.4679,-13.5165 537.7643,-16.0135 537.0742,-9.0476"/>
<text text-anchor="middle" x="678.8271" y="-13.8" font-family="Times,serif" font-size="14.00" fill="#000000">create</text>
</g>
<!-- awaiting_payment&#45;&gt;error -->
<g id="edge8" class="edge">
<title>awaiting_payment&#45;&gt;error</title>
<path fill="none" stroke="#000000" d="M673.3737,-355.2419C796.4882,-342.4612 1038,-312.7111 1038,-276 1038,-276 1038,-276 1038,-104 1038,-78.5306 1031.5049,-67.6466 1010,-54 970.5083,-28.9394 649.7769,-20.7267 538.6997,-18.6194"/>
<polygon fill="#000000" stroke="#000000" points="538.684,-15.1186 528.6213,-18.4342 538.5553,-22.1174 538.684,-15.1186"/>
<text text-anchor="middle" x="1049.6689" y="-185.8" font-family="Times,serif" font-size="14.00" fill="#000000">ship</text>
</g>
<!-- awaiting_payment&#45;&gt;error -->
<g id="edge9" class="edge">
<title>awaiting_payment&#45;&gt;error</title>
<path fill="none" stroke="#000000" d="M675.3609,-356.7819C812.5741,-345.9101 1097,-318.2755 1097,-276 1097,-276 1097,-276 1097,-104 1097,-67.5528 1066.089,-66.8972 1032,-54 986.2156,-36.678 652.371,-23.3655 538.7456,-19.2941"/>
<polygon fill="#000000" stroke="#000000" points="538.5719,-15.7858 528.4541,-18.9291 538.3238,-22.7814 538.5719,-15.7858"/>
<text text-anchor="middle" x="1115.269" y="-185.8" font-family="Times,serif" font-size="14.00" fill="#000000">refund</text>
</g>
<!-- awaiting_payment&#45;&gt;error -->
<g id="edge10" class="edge">
<title>awaiting_payment&#45;&gt;error</title>
<path fill="none" stroke="#000000" d="M534.8628,-354.2363C420.9037,-340.3191 204,-309.4378 204,-276 204,-276 204,-276 204,-104 204,-72.8857 225.257,-68.0864 253,-54 289.0465,-35.6974 403.4524,-24.9963 463.4521,-20.5056"/>
<polygon fill="#000000" stroke="#000000" points="463.923,-23.9806 473.6424,-19.7635 463.4146,-16.9991 463.923,-23.9806"/>
<text text-anchor="middle" x="220.7036" y="-185.8" font-family="Times,serif" font-size="14.00" fill="#000000">create</text>
</g>
<!-- awaiting_shippment -->
<g id="node4" class="node">
<title>awaiting_shippment</title>
<ellipse fill="none" stroke="#000000" cx="389" cy="-276" rx="81.6526" ry="18"/>
<text text-anchor="middle" x="389" y="-271.8" font-family="Times,serif" font-size="14.00" fill="#000000">awaiting_shippment</text>
</g>
<!-- awaiting_payment&#45;&gt;awaiting_shippment -->
<g id="edge6" class="edge">
<title>awaiting_payment&#45;&gt;awaiting_shippment</title>
<path fill="none" stroke="#000000" d="M564.2462,-346.426C528.8254,-332.1915 476.2798,-311.0751 437.9668,-295.6783"/>
<polygon fill="#000000" stroke="#000000" points="439.1359,-292.3761 428.552,-291.8947 436.5257,-298.8712 439.1359,-292.3761"/>
<text text-anchor="middle" x="518.1069" y="-314.8" font-family="Times,serif" font-size="14.00" fill="#000000">pay</text>
</g>
<!-- canceled -->
<g id="node5" class="node">
<title>canceled</title>
<ellipse fill="none" stroke="#000000" cx="645" cy="-104" rx="41.0661" ry="18"/>
<text text-anchor="middle" x="645" y="-99.8" font-family="Times,serif" font-size="14.00" fill="#000000">canceled</text>
</g>
<!-- awaiting_payment&#45;&gt;canceled -->
<g id="edge7" class="edge">
<title>awaiting_payment&#45;&gt;canceled</title>
<path fill="none" stroke="#000000" d="M616.2468,-344.2433C635.8352,-316.7584 671.6476,-261.4864 685,-208 688.8753,-192.4764 689.2039,-187.4379 685,-172 680.859,-156.793 672.3589,-141.5179 664.2552,-129.3084"/>
<polygon fill="#000000" stroke="#000000" points="667.0694,-127.2245 658.4925,-121.0046 661.3185,-131.2156 667.0694,-127.2245"/>
<text text-anchor="middle" x="696.8726" y="-228.8" font-family="Times,serif" font-size="14.00" fill="#000000">cancel</text>
</g>
<!-- awaiting_shippment&#45;&gt;error -->
<g id="edge13" class="edge">
<title>awaiting_shippment&#45;&gt;error</title>
<path fill="none" stroke="#000000" d="M331.1719,-263.1685C316.2458,-257.8265 301.0173,-250.3633 289,-240 256.1398,-211.6625 253.3761,-196.0792 242.7861,-154 233.6116,-117.5449 244.6387,-74.4667 268,-54 296.4037,-29.1157 404.9064,-21.4008 463.2874,-19.0325"/>
<polygon fill="#000000" stroke="#000000" points="463.7116,-22.5193 473.5745,-18.6496 463.4512,-15.5241 463.7116,-22.5193"/>
<text text-anchor="middle" x="253.1069" y="-142.8" font-family="Times,serif" font-size="14.00" fill="#000000">pay</text>
</g>
<!-- awaiting_shippment&#45;&gt;error -->
<g id="edge14" class="edge">
<title>awaiting_shippment&#45;&gt;error</title>
<path fill="none" stroke="#000000" d="M355.6979,-259.5422C346.9439,-254.1502 338.0023,-247.5683 331,-240 301.7676,-208.4051 296.6486,-195.821 286.4619,-154 277.9973,-119.249 280.1073,-78.8564 306,-54 328.0265,-32.8551 413.1506,-23.7288 463.3562,-20.1176"/>
<polygon fill="#000000" stroke="#000000" points="463.7644,-23.5981 473.5042,-19.4284 463.29,-16.6142 463.7644,-23.5981"/>
<text text-anchor="middle" x="305.269" y="-142.8" font-family="Times,serif" font-size="14.00" fill="#000000">refund</text>
</g>
<!-- awaiting_shippment&#45;&gt;error -->
<g id="edge15" class="edge">
<title>awaiting_shippment&#45;&gt;error</title>
<path fill="none" stroke="#000000" d="M383.6753,-257.8628C376.7333,-231.6986 366.2916,-181.9029 373.5928,-140 377.9705,-114.8756 382.6784,-109.3209 393,-86 399.5179,-71.2733 397.9948,-64.7347 410,-54 425.3882,-40.2403 446.6677,-31.4324 464.7802,-25.9754"/>
<polygon fill="#000000" stroke="#000000" points="465.7658,-29.3342 474.4593,-23.2783 463.8868,-22.5911 465.7658,-29.3342"/>
<text text-anchor="middle" x="389.7036" y="-142.8" font-family="Times,serif" font-size="14.00" fill="#000000">create</text>
</g>
<!-- awaiting_refund -->
<g id="node6" class="node">
<title>awaiting_refund</title>
<ellipse fill="none" stroke="#000000" cx="465" cy="-190" rx="68.1201" ry="18"/>
<text text-anchor="middle" x="465" y="-185.8" font-family="Times,serif" font-size="14.00" fill="#000000">awaiting_refund</text>
</g>
<!-- awaiting_shippment&#45;&gt;awaiting_refund -->
<g id="edge11" class="edge">
<title>awaiting_shippment&#45;&gt;awaiting_refund</title>
<path fill="none" stroke="#000000" d="M404.7472,-258.1807C415.6508,-245.8425 430.3284,-229.2337 442.467,-215.4979"/>
<polygon fill="#000000" stroke="#000000" points="445.2736,-217.6074 449.2729,-207.7964 440.0283,-212.972 445.2736,-217.6074"/>
<text text-anchor="middle" x="448.8726" y="-228.8" font-family="Times,serif" font-size="14.00" fill="#000000">cancel</text>
</g>
<!-- shipped -->
<g id="node7" class="node">
<title>shipped</title>
<ellipse fill="none" stroke="#000000" cx="855" cy="-104" rx="37.7352" ry="18"/>
<text text-anchor="middle" x="855" y="-99.8" font-family="Times,serif" font-size="14.00" fill="#000000">shipped</text>
</g>
<!-- awaiting_shippment&#45;&gt;shipped -->
<g id="edge12" class="edge">
<title>awaiting_shippment&#45;&gt;shipped</title>
<path fill="none" stroke="#000000" d="M431.1763,-260.4328C520.7039,-227.3883 728.6485,-150.6362 815.6348,-118.5297"/>
<polygon fill="#000000" stroke="#000000" points="816.9699,-121.7677 825.1393,-115.0215 814.546,-115.2008 816.9699,-121.7677"/>
<text text-anchor="middle" x="679.6689" y="-185.8" font-family="Times,serif" font-size="14.00" fill="#000000">ship</text>
</g>
<!-- canceled&#45;&gt;error -->
<g id="edge21" class="edge">
<title>canceled&#45;&gt;error</title>
<path fill="none" stroke="#000000" d="M674.995,-91.4517C693.5404,-81.9092 711.7476,-68.0635 700,-54 679.8375,-29.8627 590.4323,-21.878 538.576,-19.2593"/>
<polygon fill="#000000" stroke="#000000" points="538.5786,-15.7557 528.4278,-18.7909 538.2558,-22.7483 538.5786,-15.7557"/>
<text text-anchor="middle" x="721.269" y="-56.8" font-family="Times,serif" font-size="14.00" fill="#000000">refund</text>
</g>
<!-- canceled&#45;&gt;error -->
<g id="edge22" class="edge">
<title>canceled&#45;&gt;error</title>
<path fill="none" stroke="#000000" d="M612.5419,-92.968C605.1612,-90.5738 597.3342,-88.1243 590,-86 558.6429,-76.9176 542.9315,-89.9719 518.7861,-68 512.3913,-62.1808 508.2948,-53.909 505.6709,-45.7648"/>
<polygon fill="#000000" stroke="#000000" points="509.0527,-44.8623 503.1452,-36.0673 502.2787,-46.6266 509.0527,-44.8623"/>
<text text-anchor="middle" x="528.1069" y="-56.8" font-family="Times,serif" font-size="14.00" fill="#000000">pay</text>
</g>
<!-- canceled&#45;&gt;error -->
<g id="edge23" class="edge">
<title>canceled&#45;&gt;error</title>
<path fill="none" stroke="#000000" d="M612.9475,-92.4423C597.1716,-86.1653 578.1729,-77.7042 562.2549,-68 548.8616,-59.835 535.2208,-48.9975 524.2218,-39.4999"/>
<polygon fill="#000000" stroke="#000000" points="526.5341,-36.8725 516.721,-32.8784 521.9015,-42.1203 526.5341,-36.8725"/>
<text text-anchor="middle" x="579.8726" y="-56.8" font-family="Times,serif" font-size="14.00" fill="#000000">cancel</text>
</g>
<!-- canceled&#45;&gt;error -->
<g id="edge24" class="edge">
<title>canceled&#45;&gt;error</title>
<path fill="none" stroke="#000000" d="M632.2143,-86.7705C623.5559,-76.1123 611.3021,-62.8267 598,-54 579.264,-41.5676 555.658,-32.6859 536.4246,-26.8551"/>
<polygon fill="#000000" stroke="#000000" points="537.3927,-23.4917 526.8143,-24.0814 535.4516,-30.2172 537.3927,-23.4917"/>
<text text-anchor="middle" x="625.6689" y="-56.8" font-family="Times,serif" font-size="14.00" fill="#000000">ship</text>
</g>
<!-- canceled&#45;&gt;error -->
<g id="edge25" class="edge">
<title>canceled&#45;&gt;error</title>
<path fill="none" stroke="#000000" d="M648.3437,-85.8813C649.2061,-75.4208 648.2884,-62.6625 641,-54 627.8558,-38.3778 574.8685,-28.0716 537.9928,-22.6345"/>
<polygon fill="#000000" stroke="#000000" points="538.4575,-19.1655 528.0657,-21.2297 537.4766,-26.0964 538.4575,-19.1655"/>
<text text-anchor="middle" x="663.7036" y="-56.8" font-family="Times,serif" font-size="14.00" fill="#000000">create</text>
</g>
<!-- awaiting_refund&#45;&gt;error -->
<g id="edge17" class="edge">
<title>awaiting_refund&#45;&gt;error</title>
<path fill="none" stroke="#000000" d="M456.6963,-172.0688C445.4035,-144.8573 428.7908,-92.2591 449,-54 453.5194,-45.444 461.0893,-38.5127 469.074,-33.1013"/>
<polygon fill="#000000" stroke="#000000" points="471.0426,-36.0007 477.7762,-27.8209 467.4113,-30.0162 471.0426,-36.0007"/>
<text text-anchor="middle" x="451.1069" y="-99.8" font-family="Times,serif" font-size="14.00" fill="#000000">pay</text>
</g>
<!-- awaiting_refund&#45;&gt;error -->
<g id="edge18" class="edge">
<title>awaiting_refund&#45;&gt;error</title>
<path fill="none" stroke="#000000" d="M464.9283,-171.9973C465.0096,-140.1246 466.1702,-75.135 474,-54 475.6004,-49.68 477.8961,-45.44 480.4819,-41.4725"/>
<polygon fill="#000000" stroke="#000000" points="483.3808,-43.4376 486.4486,-33.2966 477.7264,-39.311 483.3808,-43.4376"/>
<text text-anchor="middle" x="485.8726" y="-99.8" font-family="Times,serif" font-size="14.00" fill="#000000">cancel</text>
</g>
<!-- awaiting_refund&#45;&gt;error -->
<g id="edge19" class="edge">
<title>awaiting_refund&#45;&gt;error</title>
<path fill="none" stroke="#000000" d="M480.1343,-172.3369C490.2094,-159.359 502.5595,-140.783 508,-122 512.4514,-106.6317 509.7459,-101.9045 508,-86 507.1058,-77.8538 505.1379,-76.1158 504,-68 503.0103,-60.9409 502.3468,-53.2762 501.9021,-46.1175"/>
<polygon fill="#000000" stroke="#000000" points="505.3972,-45.9302 501.3946,-36.1206 498.4062,-46.2852 505.3972,-45.9302"/>
<text text-anchor="middle" x="521.6689" y="-99.8" font-family="Times,serif" font-size="14.00" fill="#000000">ship</text>
</g>
<!-- awaiting_refund&#45;&gt;error -->
<g id="edge20" class="edge">
<title>awaiting_refund&#45;&gt;error</title>
<path fill="none" stroke="#000000" d="M442.4057,-173.0207C418.6832,-152.974 386.732,-118.269 401.5928,-86 414.0464,-58.958 443.3976,-40.9615 466.9977,-30.3138"/>
<polygon fill="#000000" stroke="#000000" points="468.535,-33.4634 476.3656,-26.3268 465.7937,-27.0224 468.535,-33.4634"/>
<text text-anchor="middle" x="417.7036" y="-99.8" font-family="Times,serif" font-size="14.00" fill="#000000">create</text>
</g>
<!-- awaiting_refund&#45;&gt;canceled -->
<g id="edge16" class="edge">
<title>awaiting_refund&#45;&gt;canceled</title>
<path fill="none" stroke="#000000" d="M513.434,-177.3526C532.7852,-171.4484 554.9523,-163.5865 574,-154 582.5788,-149.6824 600.2043,-137.2781 615.7469,-125.9056"/>
<polygon fill="#000000" stroke="#000000" points="618.1233,-128.5021 624.0967,-119.7517 613.9703,-122.8671 618.1233,-128.5021"/>
<text text-anchor="middle" x="613.269" y="-142.8" font-family="Times,serif" font-size="14.00" fill="#000000">refund</text>
</g>
<!-- shipped&#45;&gt;error -->
<g id="edge26" class="edge">
<title>shipped&#45;&gt;error</title>
<path fill="none" stroke="#000000" d="M891.7766,-99.6585C932.0833,-93.5034 988.0372,-79.9788 964,-54 949.593,-38.4293 645.8614,-24.1258 538.3276,-19.5324"/>
<polygon fill="#000000" stroke="#000000" points="538.3947,-16.0322 528.2557,-19.1061 538.0987,-23.0259 538.3947,-16.0322"/>
<text text-anchor="middle" x="987.269" y="-56.8" font-family="Times,serif" font-size="14.00" fill="#000000">refund</text>
</g>
<!-- shipped&#45;&gt;error -->
<g id="edge27" class="edge">
<title>shipped&#45;&gt;error</title>
<path fill="none" stroke="#000000" d="M830.1904,-90.4234C808.1803,-78.9697 774.8289,-63.0373 744,-54 673.0817,-33.2109 586.8325,-24.0711 538.501,-20.3353"/>
<polygon fill="#000000" stroke="#000000" points="538.7258,-16.8424 528.4955,-19.5977 538.2111,-23.8235 538.7258,-16.8424"/>
<text text-anchor="middle" x="791.1069" y="-56.8" font-family="Times,serif" font-size="14.00" fill="#000000">pay</text>
</g>
<!-- shipped&#45;&gt;error -->
<g id="edge28" class="edge">
<title>shipped&#45;&gt;error</title>
<path fill="none" stroke="#000000" d="M841.9971,-86.6381C832.5109,-75.3479 818.6207,-61.3963 803,-54 756.9269,-32.1846 608.5495,-22.7976 538.4044,-19.5014"/>
<polygon fill="#000000" stroke="#000000" points="538.3929,-15.9973 528.2447,-19.041 538.076,-22.9902 538.3929,-15.9973"/>
<text text-anchor="middle" x="839.8726" y="-56.8" font-family="Times,serif" font-size="14.00" fill="#000000">cancel</text>
</g>
<!-- shipped&#45;&gt;error -->
<g id="edge29" class="edge">
<title>shipped&#45;&gt;error</title>
<path fill="none" stroke="#000000" d="M863.8013,-86.2089C867.661,-75.603 869.7648,-62.5776 862,-54 840.5739,-30.331 626.6324,-21.572 538.5693,-18.9524"/>
<polygon fill="#000000" stroke="#000000" points="538.5716,-15.4511 528.4753,-18.6628 538.3707,-22.4482 538.5716,-15.4511"/>
<text text-anchor="middle" x="878.6689" y="-56.8" font-family="Times,serif" font-size="14.00" fill="#000000">ship</text>
</g>
<!-- shipped&#45;&gt;error -->
<g id="edge30" class="edge">
<title>shipped&#45;&gt;error</title>
<path fill="none" stroke="#000000" d="M878.1653,-89.5178C891.7515,-79.2708 904.3893,-65.3845 894,-54 870.3193,-28.0509 632.3356,-20.5737 538.6282,-18.6261"/>
<polygon fill="#000000" stroke="#000000" points="538.5246,-15.1235 528.4573,-18.4249 538.386,-22.1221 538.5246,-15.1235"/>
<text text-anchor="middle" x="913.7036" y="-56.8" font-family="Times,serif" font-size="14.00" fill="#000000">create</text>
</g>
</g>
</svg>
