<?xml version="1.0" encoding="UTF-8" standalone="no"?>
<!DOCTYPE svg PUBLIC "-//W3C//DTD SVG 1.1//EN"
 "http://www.w3.org/Graphics/SVG/1.1/DTD/svg11.dtd">
<!-- Generated by graphviz version 2.40.1 (20161225.0304)
 -->
<!-- Title: G Pages: 1 -->
<svg width="296pt" height="388pt"
 viewBox="0.00 0.00 295.81 388.00" xmlns="http://www.w3.org/2000/svg" xmlns:xlink="http://www.w3.org/1999/xlink">
<g id="graph0" class="graph" transform="scale(1 1) rotate(0) translate(4 384)">
<title>G</title>
<polygon fill="#ffffff" stroke="transparent" points="-4,4 -4,-384 291.8051,-384 291.8051,4 -4,4"/>
<!-- start -->
<g id="node1" class="node">
<title>start</title>
<ellipse fill="none" stroke="#000000" stroke-dasharray="1,5" cx="203.06" cy="-362" rx="27" ry="18"/>
<text text-anchor="middle" x="203.06" y="-357.8" font-family="Times,serif" font-size="14.00" fill="#000000">start</text>
</g>
<!-- awaiting_payment -->
<g id="node2" class="node">
<title>awaiting_payment</title>
<ellipse fill="none" stroke="#000000" cx="203.06" cy="-276" rx="75.3621" ry="18"/>
<text text-anchor="middle" x="203.06" y="-271.8" font-family="Times,serif" font-size="14.00" fill="#000000">awaiting_payment</text>
</g>
<!-- start&#45;&gt;awaiting_payment -->
<g id="edge1" class="edge">
<title>start&#45;&gt;awaiting_payment</title>
<path fill="none" stroke="#000000" d="M203.06,-343.7616C203.06,-332.3597 203.06,-317.4342 203.06,-304.494"/>
<polygon fill="#000000" stroke="#000000" points="206.5601,-304.2121 203.06,-294.2121 199.5601,-304.2121 206.5601,-304.2121"/>
<text text-anchor="middle" x="219.7636" y="-314.8" font-family="Times,serif" font-size="14.00" fill="#000000">create</text>
</g>
<!-- awaiting_shippment -->
<g id="node3" class="node">
<title>awaiting_shippment</title>
<ellipse fill="none" stroke="#000000" cx="148.06" cy="-190" rx="81.6526" ry="18"/>
<text text-anchor="middle" x="148.06" y="-185.8" font-family="Times,serif" font-size="14.00" fill="#000000">awaiting_shippment</text>
</g>
<!-- awaiting_payment&#45;&gt;awaiting_shippment -->
<g id="edge2" class="edge">
<title>awaiting_payment&#45;&gt;awaiting_shippment</title>
<path fill="none" stroke="#000000" d="M191.664,-258.1807C183.9724,-246.1539 173.6857,-230.0692 165.0352,-216.5431"/>
<polygon fill="#000000" stroke="#000000" points="167.9671,-214.6311 159.6307,-208.0923 162.0699,-218.4025 167.9671,-214.6311"/>
<text text-anchor="middle" x="188.167" y="-228.8" font-family="Times,serif" font-size="14.00" fill="#000000">pay</text>
</g>
<!-- canceled -->
<g id="node4" class="node">
<title>canceled</title>
<ellipse fill="none" stroke="#000000" cx="163.06" cy="-18" rx="41.0661" ry="18"/>
<text text-anchor="middle" x="163.06" y="-13.8" font-family="Times,serif" font-size="14.00" fill="#000000">canceled</text>
</g>
<!-- awaiting_payment&#45;&gt;canceled -->
<g id="edge3" class="edge">
<title>awaiting_payment&#45;&gt;canceled</title>
<path fill="none" stroke="#000000" d="M215.5787,-258.228C224.06,-245.0512 234.5199,-226.2793 239.06,-208 252.1304,-155.3767 261.1919,-135.4998 239.06,-86 230.3407,-66.4984 212.958,-50.2743 197.0153,-38.5702"/>
<polygon fill="#000000" stroke="#000000" points="198.5748,-35.3907 188.3705,-32.5408 194.5704,-41.1322 198.5748,-35.3907"/>
<text text-anchor="middle" x="269.9326" y="-142.8" font-family="Times,serif" font-size="14.00" fill="#000000">cancel</text>
</g>
<!-- awaiting_refund -->
<g id="node5" class="node">
<title>awaiting_refund</title>
<ellipse fill="none" stroke="#000000" cx="68.06" cy="-104" rx="68.1201" ry="18"/>
<text text-anchor="middle" x="68.06" y="-99.8" font-family="Times,serif" font-size="14.00" fill="#000000">awaiting_refund</text>
</g>
<!-- awaiting_shippment&#45;&gt;awaiting_refund -->
<g id="edge4" class="edge">
<title>awaiting_shippment&#45;&gt;awaiting_refund</title>
<path fill="none" stroke="#000000" d="M131.484,-172.1807C119.8221,-159.6442 104.0587,-142.6986 91.1649,-128.8377"/>
<polygon fill="#000000" stroke="#000000" points="93.7149,-126.4402 84.3411,-121.5022 88.5895,-131.2079 93.7149,-126.4402"/>
<text text-anchor="middle" x="130.9326" y="-142.8" font-family="Times,serif" font-size="14.00" fill="#000000">cancel</text>
</g>
<!-- shipped -->
<g id="node6" class="node">
<title>shipped</title>
<ellipse fill="none" stroke="#000000" cx="192.06" cy="-104" rx="37.7352" ry="18"/>
<text text-anchor="middle" x="192.06" y="-99.8" font-family="Times,serif" font-size="14.00" fill="#000000">shipped</text>
</g>
<!-- awaiting_shippment&#45;&gt;shipped -->
<g id="edge5" class="edge">
<title>awaiting_shippment&#45;&gt;shipped</title>
<path fill="none" stroke="#000000" d="M157.3913,-171.7616C163.481,-159.8589 171.5354,-144.1164 178.3479,-130.801"/>
<polygon fill="#000000" stroke="#000000" points="181.6042,-132.1206 183.0431,-121.6239 175.3725,-128.9322 181.6042,-132.1206"/>
<text text-anchor="middle" x="183.729" y="-142.8" font-family="Times,serif" font-size="14.00" fill="#000000">ship</text>
</g>
<!-- awaiting_refund&#45;&gt;canceled -->
<g id="edge6" class="edge">
<title>awaiting_refund&#45;&gt;canceled</title>
<path fill="none" stroke="#000000" d="M87.2847,-86.5966C101.6896,-73.5564 121.5492,-55.5783 137.3234,-41.2984"/>
<polygon fill="#000000" stroke="#000000" points="140.0848,-43.5198 145.1494,-34.2138 135.3869,-38.3303 140.0848,-43.5198"/>
<text text-anchor="middle" x="140.3291" y="-56.8" font-family="Times,serif" font-size="14.00" fill="#000000">refund</text>
</g>
</g>
</svg>
